<mxfile host="app.diagrams.net" modified="2024-06-20T08:21:25.571Z" agent="Mozilla/5.0 (Windows NT 10.0; Win64; x64) AppleWebKit/537.36 (KHTML, like Gecko) Chrome/126.0.0.0 Safari/537.36" version="24.5.5" etag="IAzhP-PB0cWh9wBwhJk6" type="github">
  <diagram name="Page-1" id="bpf756XI2lNALG4eeLM0">
    <mxGraphModel>
      <root>
        <mxCell id="0" />
        <mxCell id="1" parent="0" />
      </root>
    </mxGraphModel>
  </diagram>
</mxfile>
